<?xml version="1.0" standalone="no"?>
<!DOCTYPE svg PUBLIC "-//W3C//DTD SVG 20010904//EN"
 "http://www.w3.org/TR/2001/REC-SVG-20010904/DTD/svg10.dtd">
<svg version="1.0" xmlns="http://www.w3.org/2000/svg"
 width="151.000000pt" height="51.000000pt" viewBox="0 0 151.000000 51.000000"
 preserveAspectRatio="xMidYMid meet">

<g transform="translate(0.000000,51.000000) scale(0.100000,-0.100000)"
fill="#000000" stroke="none">
<path d="M445 405 c-24 -23 -25 -30 -25 -145 0 -115 1 -122 25 -145 l24 -25
276 0 276 0 24 25 c24 23 25 30 25 145 0 115 -1 122 -25 145 l-24 25 -276 0
-276 0 -24 -25z m145 -65 c0 -5 -13 -10 -30 -10 l-30 0 0 -80 c0 -64 -3 -80
-15 -80 -12 0 -15 16 -15 80 l0 80 -30 0 c-16 0 -30 5 -30 10 0 6 32 10 75 10
43 0 75 -4 75 -10z m40 -58 c0 -70 10 -92 42 -92 26 0 38 31 38 99 0 48 3 61
15 61 22 0 21 -127 -1 -158 -21 -31 -87 -31 -108 0 -22 31 -23 158 -1 158 12
0 15 -14 15 -68z m248 56 c15 -15 16 -54 2 -63 -6 -4 -4 -16 6 -31 15 -22 15
-26 0 -49 -14 -21 -24 -25 -66 -25 l-50 0 0 90 0 90 48 0 c26 0 53 -5 60 -12z
m162 2 c0 -5 -20 -10 -45 -10 -43 0 -45 -1 -45 -30 0 -28 2 -30 40 -30 22 0
40 -4 40 -10 0 -5 -18 -10 -40 -10 -38 0 -40 -2 -40 -30 0 -29 2 -30 45 -30
25 0 45 -4 45 -10 0 -6 -27 -10 -60 -10 l-60 0 0 90 0 90 60 0 c33 0 60 -4 60
-10z"/>
<path d="M800 299 c0 -25 3 -30 21 -27 31 4 49 35 29 48 -31 20 -50 12 -50
-21z"/>
<path d="M800 220 c0 -28 3 -31 28 -28 21 2 27 8 27 28 0 20 -6 26 -27 28 -25
3 -28 0 -28 -28z"/>
<path d="M301 298 c17 -32 29 -68 29 -90 0 -21 5 -38 10 -38 6 0 10 14 10 32
0 17 14 55 30 85 33 58 35 63 20 63 -5 0 -20 -21 -34 -47 l-24 -48 -23 48
c-13 26 -28 47 -35 47 -7 0 -1 -21 17 -52z"/>
<path d="M1090 260 c0 -53 4 -90 10 -90 6 0 10 16 10 35 0 30 3 35 23 35 17 0
29 -10 43 -35 10 -19 22 -35 26 -35 11 0 10 7 -8 41 -14 28 -14 32 0 48 38 42
3 91 -66 91 l-38 0 0 -90z m91 54 c19 -23 -1 -48 -40 -52 -30 -3 -31 -2 -31
32 0 33 2 36 29 36 16 0 34 -7 42 -16z"/>
</g>
</svg>
